# xmcd
#
# Track frame offsets:
#	150
#	15720
#	32425
#	48810
#	68722
#	84815
#	103005
#	113500
#	128192
#	143415
#	157220
#	176520
#	188250
#	199605
#	219675
#	230157
#
# Disc length: 3242 seconds
#
# Revision: 1
# Processed by: cddbd v1.4PL0 Copyright (c) Steve Scherf et al.
# Submitted via: audiograbber 1.81.02
#
DISCID=c80ca810
DTITLE=Francisco Fialho and Matilde Largionho - Raizes do Fado (Roots of Fado)
DYEAR=1900
DGENRE=
TTITLE0=Operária Fadista
TTITLE1=Alentejo Terra Queimada
TTITLE2=Mae
TTITLE3=Olhai-al-Olhai
TTITLE4=Um fado para uma-noite
TTITLE5=O fado è do povo
TTITLE6=Lisboa Cidade
TTITLE7=Linda Portuguesa
TTITLE8=Para ti meu pai
TTITLE9=O lavrador e a terra
TTITLE10=Povo Raca Raiz
TTITLE11=Bairro Velhinho
TTITLE12=Fado de Lìsboa
TTITLE13=A lenda da fonte
TTITLE14=Tia Macheta
TTITLE15=Olhos de Mil Côres
EXTD=
EXTT0=
EXTT1=
EXTT2=
EXTT3=
EXTT4=
EXTT5=
EXTT6=
EXTT7=
EXTT8=
EXTT9=
EXTT10=
EXTT11=
EXTT12=
EXTT13=
EXTT14=
EXTT15=
PLAYORDER=
